<svg id="Capa_1" enable-background="new 0 0 512.019 512.019" height="512" viewBox="0 0 512.019 512.019" width="512" xmlns="http://www.w3.org/2000/svg"><g><g><path d="m286.219 94.664 21.546-31.808c.132-30.525-29.365-40.638-47.51-53.951-2.535-1.86-5.955-1.86-8.49 0-18.145 13.313-47.643 23.427-47.51 53.951l21.546 31.808z" fill="#8de1ce"/><path d="m94.664 225.8-31.808-21.546c-30.525-.132-40.638 29.365-53.951 47.51-1.86 2.535-1.86 5.955 0 8.49 13.313 18.145 23.427 47.643 53.951 47.51l31.808-21.546z" fill="#6fcd90"/><path d="m201.499 101.175 2.756-38.319c-15.148-26.501-45.75-20.511-68.121-22.968-3.126-.343-6.087 1.366-7.353 4.245-9.057 20.602-29.546 44.109-14.17 70.478l34.564 16.773z" fill="#6fcd90"/><g fill="#8de1ce"><path d="m131.385 149.175-16.773-34.563c-26.369-15.377-49.876 5.112-70.478 14.17-2.879 1.266-4.588 4.227-4.245 7.353 2.457 22.371-3.533 52.973 22.968 68.121l38.32-2.756z"/><path d="m225.801 417.355-21.546 31.808c-.132 30.525 29.365 40.638 47.51 53.951 2.535 1.86 5.955 1.86 8.49 0 18.145-13.313 47.643-23.427 47.51-53.951l-21.546-31.808z"/><path d="m101.176 310.521-38.32-2.756c-26.501 15.148-20.511 45.75-22.968 68.121-.343 3.126 1.366 6.087 4.245 7.353 20.602 9.057 44.109 29.546 70.478 14.17l16.773-34.564z"/></g><path d="m149.175 380.635-34.564 16.773c-15.377 26.369 5.112 49.876 14.17 70.478 1.266 2.879 4.227 4.588 7.353 4.245 22.371-2.457 52.973 3.533 68.121-22.968l-2.756-38.32z" fill="#6fcd90"/><path d="m417.356 286.219 31.808 21.546c30.525.132 40.638-29.365 53.951-47.51 1.86-2.535 1.86-5.955 0-8.49-13.313-18.145-23.427-47.643-53.951-47.51l-31.808 21.545z" fill="#6fcd90"/><path d="m310.521 410.844-2.756 38.32c15.148 26.501 45.75 20.511 68.121 22.968 3.126.343 6.087-1.366 7.353-4.245 9.057-20.602 29.547-44.109 14.17-70.478l-34.563-16.773z" fill="#6fcd90"/><path d="m380.635 362.844 16.773 34.564c26.369 15.377 49.876-5.112 70.478-14.17 2.879-1.266 4.588-4.227 4.245-7.353-2.457-22.371 3.533-52.973-22.968-68.121l-38.32 2.756z" fill="#8de1ce"/><path d="m410.844 201.498 38.32 2.756c26.501-15.148 20.511-45.75 22.968-68.121.343-3.126-1.366-6.087-4.245-7.353-20.602-9.058-44.109-29.547-70.478-14.17l-16.773 34.563z" fill="#8de1ce"/><path d="m362.845 131.385 34.563-16.773c15.377-26.369-5.112-49.876-14.17-70.478-1.266-2.879-4.227-4.588-7.353-4.245-22.371 2.457-52.973-3.533-68.121 22.968l2.756 38.319z" fill="#6fcd90"/></g><circle cx="256.01" cy="256.01" fill="#f6ee86" r="199.928"/><path d="m411.262 381.969c-317.585 37.685-282.35-234.828-240.623-306.783-67.711 32.024-114.558 100.948-114.558 180.824 0 110.418 89.511 199.929 199.929 199.929 62.67-.001 118.595-28.844 155.252-73.97z" fill="#f2d98d"/><circle cx="256.01" cy="256.01" fill="#8de1ce" r="146.95"/><path d="m256.01 402.96c25.845 0 50.126-6.681 71.226-18.396-163.823-12.089-192.268-134.549-181.239-225.965-22.978 25.932-36.937 60.039-36.937 97.411 0 81.158 65.792 146.95 146.95 146.95z" fill="#6fcd90"/><path d="m509.161 247.328c-10.713-14.602-20.449-39.181-42.972-47.638 15.278-18.589 11.424-44.765 13.397-62.739.702-6.401-2.786-12.443-8.682-15.036-16.555-7.279-37.295-23.705-61.034-19.767 3.938-23.74-12.484-44.464-19.766-61.034-2.593-5.896-8.628-9.384-15.038-8.682-17.965 1.973-44.15-1.881-62.74 13.399-8.46-22.526-33.056-32.278-47.635-42.973-5.192-3.811-12.171-3.81-17.364 0-14.577 10.695-39.176 20.447-47.635 42.974-18.589-15.279-44.769-11.426-62.74-13.399-6.404-.707-12.445 2.786-15.037 8.682-7.275 16.55-23.711 37.302-19.765 61.048-6.746-1.114-13.774-.681-21.202 1.309-4.001 1.071-6.376 5.183-5.305 9.185 1.071 4.001 5.181 6.376 9.185 5.305 6.12-1.638 11.683-1.832 16.998-.555-19.133 21.262-33.935 46.487-43.022 74.278-13.139-13.951-9.346-36.645-11.435-56.133 2.04-.904 4.193-1.944 6.753-3.263 3.682-1.897 5.129-6.42 3.231-10.102-1.897-3.682-6.419-5.128-10.103-3.231-2.338 1.205-4.346 2.174-6.137 2.962-5.896 2.592-9.385 8.635-8.682 15.037 1.973 17.97-1.88 44.149 13.397 62.738-22.525 8.459-32.277 33.06-42.972 47.637-3.81 5.193-3.81 12.171 0 17.363 10.699 14.582 20.447 39.181 42.972 47.638-15.276 18.589-11.423 44.769-13.396 62.737-.703 6.402 2.786 12.445 8.682 15.037 16.608 7.301 37.334 23.706 61.033 19.775-3.932 23.735 12.489 44.468 19.768 61.026 2.603 5.921 8.662 9.382 15.037 8.682 17.971-1.973 44.151 1.881 62.74-13.399 8.46 22.527 33.062 32.281 47.635 42.974 5.192 3.81 12.17 3.812 17.363 0 14.585-10.7 39.176-20.448 47.636-42.974 14.155 11.635 32.799 12.182 48.48 12.634 15.335.441 13.191.854 15.891.854 5.778 0 11.036-3.379 13.407-8.772 7.276-16.557 23.719-37.309 19.762-61.063 6.392 1.056 13.212.846 21.205-1.295 4.001-1.071 6.377-5.183 5.306-9.184s-5.186-6.377-9.185-5.305c-6.122 1.638-11.684 1.832-16.999.555 19.133-21.262 33.935-46.488 43.022-74.278 13.136 13.947 9.345 36.664 11.436 56.133-2.042.904-4.195 1.945-6.755 3.264-3.682 1.897-5.128 6.421-3.23 10.102 1.332 2.583 3.954 4.065 6.673 4.065 2.788 0 3.46-1.11 9.567-3.796 5.895-2.592 9.383-8.634 8.681-15.037-1.973-17.973 1.88-44.15-13.398-62.739 22.526-8.459 32.274-33.057 42.972-47.636 3.811-5.192 3.811-12.17 0-17.363zm-132.692-199.959c7.878 17.797 22.625 35.76 18.134 54.448-21.26-19.128-46.481-33.927-74.267-43.013 13.951-13.139 36.644-9.347 56.133-11.435zm-120.459-32.277c15.808 11.536 37.375 19.613 42.893 37.96-27.679-5.843-56.984-6.08-85.785 0 5.514-18.341 27.044-26.394 42.892-37.96zm-120.459 32.277c19.472 2.087 42.182-1.705 56.133 11.435-27.786 9.086-53.008 23.885-74.268 43.013-4.493-18.701 10.194-36.513 18.135-54.448zm-120.459 208.641c11.521-15.785 19.613-37.374 37.96-42.891-5.842 27.678-6.079 56.982 0 85.782-18.339-5.517-26.422-27.082-37.96-42.891zm32.277 120.458c2.087-19.472-1.705-42.182 11.435-56.133 9.086 27.786 23.885 53.008 43.013 74.267-18.701 4.493-36.505-10.189-54.448-18.134zm88.182 88.182c-7.892-17.824-22.625-35.76-18.135-54.448 21.26 19.128 46.482 33.927 74.268 43.013-13.951 13.139-36.644 9.347-56.133 11.435zm120.459 32.278c-15.78-11.516-37.375-19.613-42.893-37.96 27.678 5.843 56.984 6.08 85.785 0-5.511 18.329-27.071 26.414-42.892 37.96zm120.459-32.278c-19.472-2.087-42.182 1.705-56.133-11.435 27.786-9.086 53.008-23.885 74.267-43.013 4.494 18.701-10.187 36.496-18.134 54.448zm-120.459-16.212c-106.106 0-192.429-86.323-192.429-192.429s86.323-192.428 192.429-192.428 192.429 86.323 192.429 192.429-86.324 192.428-192.429 192.428zm154.192-331.022c18.699-4.493 36.495 10.188 54.449 18.135-2.085 19.416 1.705 42.181-11.436 56.133-9.085-27.786-23.884-53.008-43.013-74.268zm48.766 181.485c5.842-27.678 6.079-56.981 0-85.782 18.327 5.513 26.416 27.069 37.959 42.891-11.538 15.815-19.612 37.373-37.959 42.891zm-202.958-197.342c-85.164 0-154.45 69.286-154.45 154.45s69.286 154.45 154.45 154.45 154.45-69.286 154.45-154.45-69.286-154.45-154.45-154.45zm0 293.901c-76.893 0-139.45-62.557-139.45-139.45s62.557-139.45 139.45-139.45c76.894 0 139.45 62.557 139.45 139.45s-62.557 139.45-139.45 139.45zm40.75-211.045-23.461-40.636c-3.608-6.25-10.071-9.981-17.289-9.982-.1.027-11.254-.472-17.29 9.982l-23.461 40.636h-48.092c-15.363 0-24.981 16.624-17.289 29.946l24.046 41.648-24.046 41.648c-7.682 13.304 1.906 29.946 17.289 29.946h48.092l23.461 40.636c7.681 13.305 26.887 13.321 34.578 0l23.461-40.636h48.092c15.361 0 24.98-16.623 17.289-29.946l-24.046-41.648 24.046-41.648c7.682-13.306-1.909-29.946-17.289-29.946zm-45.049-33.135c1.913-3.313 6.687-3.309 8.598 0l19.131 33.136h-46.86zm-88.842 55.582c-1.913-3.314.479-7.446 4.299-7.446h39.431l-24.015 41.594zm4.299 105.742c-3.826 0-6.209-4.138-4.299-7.446l19.715-34.148 24.015 41.594zm93.141 48.136c-1.913 3.314-6.688 3.308-8.598 0l-19.131-33.136h46.86zm27.791-48.136h-64.18l-32.675-56.594 32.675-56.594h64.18l32.675 56.594zm61.05-7.447c1.909 3.307-.47 7.447-4.299 7.447h-39.431l24.015-41.595zm0-98.295-19.716 34.148-24.014-41.594h39.431c3.82-.001 6.213 4.13 4.299 7.446z"/></g></svg>