<svg height="512" viewBox="0 0 40 58" width="512" xmlns="http://www.w3.org/2000/svg"><g id="Page-1" fill="none" fill-rule="evenodd"><g id="011---Water" fill-rule="nonzero"><path id="Shape" d="m39.41 33.21c-.97-4.05-3.24-7.08-5.9-10.19-1.43-1.67-2.91-3.31-4.29-5.02-1.3134033-1.562114-2.5036409-3.2237659-3.56-4.97-2.2869314-3.96844115-4.0292433-8.22667851-5.18-12.66-.0560337-.2189366-.2540119-.37154476-.48-.37h-.04c-.2259881-.00154476-.4239663.1510634-.48.37-1.1507567 4.43332149-2.8930686 8.69155885-5.18 12.66-.53.89-1.1 1.74-1.7 2.57-1.88 2.61-4.07 4.99-6.15 7.42-.98 1.15-1.9 2.28-2.73 3.45-.72065284 1.008835-1.35617548 2.0758441-1.9 3.19-.548237 1.1348598-.97397418 2.3249125-1.27 3.55-.07.29-.13.57-.18.86-1.50738708 7.8981083 1.82579251 15.9362595 8.48 20.45.16.11.32.21.48.32 1.7591676 1.1280053 3.6817594 1.9779932 5.7 2.52 1.6091709.4234439 3.2660488.6385356 4.93.64h.04c3.9686922-.0185057 7.8399369-1.2311008 11.11-3.48.5147544-.3477515 1.0089167-.725051 1.48-1.13.8021384-.6459279 1.5450805-1.3620974 2.22-2.14 1.2071317-1.3369136 2.2234387-2.8344521 3.02-4.45.27-.53.51-1.07.73-1.62 1.5079516-3.8075561 1.8047775-7.9875634.85-11.97z" fill="#4482c3"/><path id="Shape" d="m10.22 51.24c-.188889 1.2241052-.48673913 2.4288923-.89 3.6-.16-.11-.32-.21-.48-.32-6.65420749-4.5137405-9.98738708-12.5518917-8.48-20.45 2.54167288 3.8406182 5.79730415 7.1573562 9.59 9.77-.02.07-.03.13-.05.2-.03967307.1681504-.06972188.338427-.09.51-.01886558.105902-.0322169.2127126-.04.32-.02035825.1054407-.03040562.2126126-.03.32-.0332595.4030057-.0265602.8083136.02 1.21.3490969 1.5885909.5002457 3.2142802.45 4.84z" fill="#24ae5f"/><path id="Shape" d="m11.98 37.19c-.02.19-.04.38-.07.56s-.06.36-.1.54-.08.36-.13.54l-.15.51c-.04.14-.09.27-.14.41-.09.27-.19.55-.3.82-.24.63-.49 1.25-.71 1.88-.07.19-.13.37-.19.56-.0818416.2423128-.1486355.4894502-.2.74-.01444384.0283312-.02455635.0586687-.03.09-3.79269585-2.6126438-7.04832712-5.9293818-9.59-9.77.05-.29.11-.57.18-.86.29602582-1.2250875.721763-2.4151402 1.27-3.55.6760081 1.5062343 1.88783376 2.7073674 3.4 3.37 1.6.66 3.45.68 5.06 1.39 1.1347351.4243583 1.8354475 1.5661073 1.7 2.77z" fill="#4fba6f"/><path id="Shape" d="m34.81 51.25c-.6749195.7779026-1.4178616 1.4940721-2.22 2.14-3.4671854-.7250434-7.04477-.7454479-10.52-.06-2.6588373.7042639-5.0863365 2.0938692-7.04 4.03-2.0182406-.5420068-3.9408324-1.3919947-5.7-2.52.40326087-1.1711077.701111-2.3758948.89-3.6.0502457-1.6257198-.1009031-3.2514091-.45-4.84-.0465602-.4016864-.0532595-.8069943-.02-1.21-.00040562-.1073874.00964175-.2145593.03-.32.0077831-.1072874.02113442-.214098.04-.32.02027812-.171573.05032693-.3418496.09-.51.02-.07.03-.13.05-.2 5.88 4.05 13.9 7.03 24.85 7.41z" fill="#285680"/><path id="Shape" d="m11 25c-2.30654662.963449-4.78033166 1.4629633-7.28 1.47.83-1.17 1.75-2.3 2.73-3.45 2.08-2.43 4.27-4.81 6.15-7.42 3.18 3.97 2.35 7.49-1.6 9.4z" fill="#4fba6f"/><path id="Shape" d="m38.56 45.18c-2.06 1.47-3.97 3.24-6.54 3.57-2.1.28-3.96-.88-3.91-3.09.04-1.71.89-3.31 1.47-4.89.5361425-1.3074201.8406851-2.6981651.9-4.11-.01-3.35-2.69-5.02-5.66-5.68-2.51-.56-5.37-2.36-4.84-5.34.38-2.07 2.29-3.71 4.12-4.54 1.8514762-.772684 3.5771763-1.8175415 5.12-3.1 1.38 1.71 2.86 3.35 4.29 5.02 2.66 3.11 4.93 6.14 5.9 10.19.9547775 3.9824366.6579516 8.1624439-.85 11.97z" fill="#4fba6f"/><path id="Shape" d="m32.59 53.39c-.4710833.404949-.9652456.7822485-1.48 1.13-3.2700631 2.2488992-7.1413078 3.4614943-11.11 3.48h-.04c-1.6639512-.0014644-3.3208291-.2165561-4.93-.64 1.9536635-1.9361308 4.3811627-3.3257361 7.04-4.03 3.47523-.6854479 7.0528146-.6650434 10.52.06z" fill="#24ae5f"/></g></g></svg>