<?xml version="1.0" encoding="UTF-8"?>
<svg xmlns="http://www.w3.org/2000/svg" id="filled_outline" data-name="filled outline" viewBox="0 0 512 512" width="512" height="512"><rect x="16" y="240" width="408" height="256" style="fill:#00b55b"/><path d="M408,496v-.00006a132.067,132.067,0,0,0-50.23245-103.65713l-.00015-.00012A796.52,796.52,0,0,0,134.00514,268.08185L56,240H496V496Z" style="fill:#8be0e8"/><path d="M496,192h0A43.3019,43.3019,0,0,1,459.28,171.64806l-18.138-29.02074a42.738,42.738,0,0,0-25.87628-18.81087h0a42.73805,42.73805,0,0,1-24.41188-16.621l-26.068-36.49524A16,16,0,0,0,351.76611,64H313.41445a16,16,0,0,0-13.98651,8.22971l-18.37139,33.0685a69.19794,69.19794,0,0,1-51.90693,35.05809h-.00006a69.19788,69.19788,0,0,0-46.7754,27.14481L128,240H496Z" style="fill:#db8638"/><polygon points="256 352 256 392 248 392 232 368 232 352 256 352" style="fill:#ffb401"/><path d="M352,240,96.76873,147.18863A52.96145,52.96145,0,0,0,78.66951,144h0A52.96148,52.96148,0,0,0,51.421,151.54739L16,172.8V240Z" style="fill:#ea964b"/><path d="M112,324.94837l3.334-5.39626a21.0433,21.0433,0,0,0,2.51293-16.16432v0A21.04327,21.04327,0,0,0,89.6167,288.95332L72,296l-.14455-.01379A29.09352,29.09352,0,0,0,40,324.94833v0Z" style="fill:#c5dafa"/><path d="M80,435.05574h0a12.94424,12.94424,0,0,1,1.36656-5.78885l27.05573-54.11147A12.94427,12.94427,0,0,1,120,368h0a12.94427,12.94427,0,0,1,11.5777,7.15541l27.05573,54.11147A12.94424,12.94424,0,0,1,160,435.05573h0A12.94426,12.94426,0,0,1,147.05574,448H92.94426A12.94426,12.94426,0,0,1,80,435.05574Z" style="fill:#08d175"/><path d="M40,435.05574h0a12.94424,12.94424,0,0,1,1.36656-5.78885l27.05573-54.11147A12.94427,12.94427,0,0,1,80,368h0a12.94427,12.94427,0,0,1,11.5777,7.15541l27.05573,54.11147A12.94424,12.94424,0,0,1,120,435.05573h0A12.94426,12.94426,0,0,1,107.05574,448H52.94426A12.94426,12.94426,0,0,1,40,435.05574Z" style="fill:#3cde8d"/><polygon points="320 320 320 344 312 392 296 392 296 320 320 320" style="fill:#ffb401"/><path d="M344,312l-48,32v48h-8l-24-40H240l-16,40H208V344a32,32,0,0,1,32-32h48l24-16,32,8Z" style="fill:#ffcc4d"/><path d="M48,480v16H160V480H128V456h19.05566a20.94437,20.94437,0,0,0,18.7334-30.31055L138.7334,371.57666a20.94517,20.94517,0,0,0-37.4668.001l-1.26636,2.53283-1.26684-2.53381a20.94517,20.94517,0,0,0-37.4668.001L34.21,425.68994A20.94556,20.94556,0,0,0,52.94434,456H72v24Zm67.57715-101.26611a4.945,4.945,0,0,1,8.8457-.001l27.05469,54.11133A4.94377,4.94377,0,0,1,147.05566,440H127.386a20.69286,20.69286,0,0,0-1.59693-14.31055l-16.84472-33.69018ZM52.94434,440a4.945,4.945,0,0,1-4.42286-7.15527l27.05567-54.11084a4.945,4.945,0,0,1,8.8457-.001l27.05469,54.11133A4.94377,4.94377,0,0,1,107.05566,440H88V416H72v24ZM88,456h24v24H88Z"/><rect x="16" y="480" width="16" height="16"/><rect x="176" y="480" width="16" height="16"/><path d="M131.29492,275.60889A791.67583,791.67583,0,0,1,216.15283,311.907,39.96561,39.96561,0,0,0,200,344v48a8.00008,8.00008,0,0,0,8,8h16a7.99975,7.99975,0,0,0,7.42773-5.02881l3.35206-8.37988,6.564,9.84619A7.99943,7.99943,0,0,0,248,400h8a8.00008,8.00008,0,0,0,8-8V367.54907l17.13965,28.56665A8.00091,8.00091,0,0,0,288,400h24a8.0005,8.0005,0,0,0,7.8916-6.68457l2.875-17.25159c10.18457,7.28211,20.26367,14.83679,30.04395,22.55774A123.37248,123.37248,0,0,1,400,496h16a139.28111,139.28111,0,0,0-53.27539-109.93652c-12.01856-9.488-24.47363-18.74256-37.03467-27.53931l2.20166-13.20874A8.02693,8.02693,0,0,0,328,344V332.28125l20.4375-13.625A7.99943,7.99943,0,0,0,352,312v-8a8.00005,8.00005,0,0,0-6.05957-7.76123l-32-8a7.995,7.995,0,0,0-6.37793,1.105l-5.40479,3.60327A20.819,20.819,0,0,1,296,278.11133V272H280v6.11133a36.7703,36.7703,0,0,0,8.6792,23.82129L285.57812,304H240c-1.273,0-2.53076.06641-3.77368.18323a807.30241,807.30241,0,0,0-99.51148-43.628L101.83984,248H496V232H353.41016L188.87744,172.1698a61.51865,61.51865,0,0,1,41.26416-23.87537,77.45771,77.45771,0,0,0,57.9082-39.11084l18.3711-33.06836A8.004,8.004,0,0,1,313.41406,72H351.7666a8.0177,8.0177,0,0,1,6.50977,3.3501l26.06738,36.4956a50.78912,50.78912,0,0,0,28.98145,19.73194,34.56826,34.56826,0,0,1,21.03222,15.29l18.13867,29.0205A51.01053,51.01053,0,0,0,496,200V184a35.10026,35.10026,0,0,1-29.93555-16.59229l-18.13867-29.02a50.4967,50.4967,0,0,0-30.71973-22.33252,34.77441,34.77441,0,0,1-19.84277-13.50977L371.2959,66.0498A24.04994,24.04994,0,0,0,351.7666,56H313.41406a24.01464,24.01464,0,0,0-20.97949,12.34424l-18.37109,33.06885a61.40535,61.40535,0,0,1-45.90625,31.00537,77.59658,77.59658,0,0,0-52.1836,30.28271l-2.81445,3.75287L99.50293,139.66992a60.96491,60.96491,0,0,0-52.19824,5.01758l-27.4209,16.45264,8.23242,13.71972,27.4209-16.45263a44.96,44.96,0,0,1,38.49707-3.7002L306.58984,232H16v16H54.60425Zm110.69556,92.95483L245.416,360H248v17.57764ZM312,343.33789,305.22266,384H304V348.28125l8-5.33325ZM288,320a7.99836,7.99836,0,0,0,4.4375-1.34375l21.05566-14.03662,19.749,4.937L291.5625,337.34375A7.99943,7.99943,0,0,0,288,344v32.45068l-17.13965-28.5664A8.00091,8.00091,0,0,0,264,344H240a7.99975,7.99975,0,0,0-7.42773,5.02881L218.584,384H216V344a24.02718,24.02718,0,0,1,24-24Z"/><path d="M128,82.80273A41.24009,41.24009,0,0,0,85.4707,72.41064l5.0586,15.17872a25.17935,25.17935,0,0,1,28.84765,9.897l1.9668,2.95068a7.999,7.999,0,0,0,13.3125,0l1.9668-2.95019a25.17663,25.17663,0,0,1,28.84765-9.89746l5.0586-15.17872A41.23714,41.23714,0,0,0,128,82.80273Z"/><path d="M174.65625,46.13965l1.9668-2.9502A25.17666,25.17666,0,0,1,205.4707,33.292l5.0586-15.17871A41.23761,41.23761,0,0,0,168,28.50537a41.23763,41.23763,0,0,0-42.5293-10.39209L130.5293,33.292A25.18118,25.18118,0,0,1,159.377,43.189l1.9668,2.95069a7.999,7.999,0,0,0,13.3125,0Z"/><path d="M40,332.94824h72a7.99886,7.99886,0,0,0,6.80566-3.79492l3.334-5.396a29.04359,29.04359,0,0,0-35.49512-42.23193L70.73047,287.8916A37.09259,37.09259,0,0,0,32,324.94824,8.00008,8.00008,0,0,0,40,332.94824Zm14.90332-23.60693a20.85307,20.85307,0,0,1,16.19922-5.39063l.14453.01368a7.99653,7.99653,0,0,0,3.72461-.53663l17.61523-7.04687a13.04442,13.04442,0,0,1,17.499,8.94726,13.11843,13.11843,0,0,1-1.55762,10.019l-.98926,1.60107H49.55176A21.003,21.003,0,0,1,54.90332,309.34131Z"/></svg>
