<svg height="512pt" viewBox="-29 0 512 512.00127" width="512pt" xmlns="http://www.w3.org/2000/svg"><path d="m65.769531 339.730469c0 2.804687.027344 5.605469.082031 8.398437 4.058594 208.351563 317.660157 208.351563 321.714844 0 .054688-2.792968.082032-5.59375.082032-8.398437 0-134.664063-62.910157-254.625-160.9375-332.125-98.027344 77.5-160.941407 197.460937-160.941407 332.125zm0 0" fill="#45c1ed"/><path d="m226.703125 504.390625c-79.40625 0-158.824219-52.089844-160.855469-156.269531-.050781-2.789063-.078125-5.585938-.078125-8.386719 0-134.671875 62.910157-254.625 160.933594-332.128906-61.363281 77.503906-100.742187 197.457031-100.742187 332.128906 0 2.800781.023437 5.597656.050781 8.386719 1.28125 104.179687 50.984375 156.269531 100.691406 156.269531zm0 0" fill="#23a2c4"/><path d="m383.9375 283.414062c-22.816406-9.351562-40.335938-21.058593-84.195312-21.058593-73.039063 0-73.039063 32.460937-146.078126 32.460937-9.929687 0-18.511718-.597656-26.109374-1.632812-25.300782-3.460938-39.691407-11.769532-56.753907-18.878906 16.714844-107.71875 74.070313-201.976563 155.882813-266.675782.007812-.011718.007812-.011718.019531-.023437h.011719c84.121094 66.515625 142.390625 164.296875 157.222656 275.808593zm0 0" fill="#4c5275"/><path d="m226.683594 7.628906c-54.179688 68.441406-91.214844 169.992188-99.128906 285.554688-25.300782-3.460938-39.691407-11.769532-56.753907-18.878906 16.714844-107.71875 74.070313-201.976563 155.882813-266.675782zm0 0" fill="#393f5b"/><path d="m445.808594 337.367188c-73.03125 0-73.03125-32.460938-146.066406-32.460938-73.035157 0-73.035157 32.460938-146.070313 32.460938-73.03125 0-73.03125-32.460938-146.0625-32.460938v-42.550781c73.03125 0 73.03125 32.460937 146.0625 32.460937 73.035156 0 73.035156-32.460937 146.070313-32.460937 73.03125 0 73.035156 32.460937 146.066406 32.460937" fill="#e6e6e6"/><path d="m7.609375 269.960938c34.898437 0 51.921875 7.566406 69.941406 15.578124 18.675781 8.300782 37.988281 16.882813 76.121094 16.882813 38.128906 0 57.445313-8.582031 76.125-16.882813 18.019531-8.011718 35.039063-15.578124 69.945313-15.578124 34.902343 0 51.921874 7.566406 69.941406 15.578124 18.679687 8.300782 37.992187 16.882813 76.125 16.882813 4.203125 0 7.609375-3.40625 7.609375-7.605469 0-4.203125-3.40625-7.609375-7.609375-7.609375-25.328125 0-41.238282-3.984375-54.949219-9.234375-7.875-54.886718-26.039063-107.007812-54.03125-154.984375-2.113281-3.628906-6.773437-4.855469-10.402344-2.734375-3.632812 2.117188-4.855469 6.773438-2.738281 10.402344 25.433594 43.597656 42.453125 90.738281 50.6875 140.316406-18.226562-8.089844-37.515625-16.226562-74.632812-16.226562-38.132813 0-57.449219 8.582031-76.128907 16.886718-18.019531 8.007813-35.039062 15.574219-69.941406 15.574219s-51.921875-7.566406-69.941406-15.574219c-1.476563-.65625-2.953125-1.3125-4.445313-1.96875 16.835938-99.210937 68.9375-188.402343 147.429688-252.304687 31.539062 25.683594 59.078125 55.734375 81.910156 89.386719 2.355469 3.476562 7.085938 4.382812 10.566406 2.027344 3.476563-2.359376 4.382813-7.09375 2.023438-10.570313-24.835938-36.609375-55.046875-69.097656-89.785156-96.5625-2.761719-2.1875-6.667969-2.1875-9.433594 0-83.203125 65.78125-138.753906 158.589844-157.160156 262.167969-14.210938-5.121094-31.398438-9.0625-57.226563-9.0625-4.203125 0-7.609375 3.40625-7.609375 7.609375s3.40625 7.605469 7.609375 7.605469zm0 0"/><path d="m445.8125 329.761719c-34.90625 0-51.925781-7.566407-69.945312-15.578125-18.679688-8.300782-37.996094-16.882813-76.125-16.882813-38.132813 0-57.449219 8.582031-76.125 16.882813-18.023438 8.011718-35.042969 15.578125-69.945313 15.578125-12.710937 0-23.832031-1.007813-33.996094-3.078125-4.117187-.84375-8.136719 1.820312-8.976562 5.9375-.835938 4.117187 1.820312 8.132812 5.9375 8.972656 11.175781 2.277344 23.289062 3.382812 37.035156 3.382812 38.132813 0 57.445313-8.585937 76.125-16.886718 18.019531-8.011719 35.042969-15.574219 69.945313-15.574219 34.902343 0 51.921874 7.5625 69.945312 15.574219 3.371094 1.5 6.765625 3.007812 10.285156 4.472656.042969 2.421875.066406 4.828125.066406 7.171875 0 2.578125-.023437 5.277344-.078124 8.238281-1.992188 102.242188-80.835938 148.808594-153.25 148.808594-72.417969 0-151.265626-46.566406-153.253907-148.800781-.054687-2.910157-.082031-5.609375-.082031-8.246094 0-4.480469.078125-8.957031.222656-13.394531 1.316406.578125 2.632813 1.164062 3.953125 1.75 4.75 2.113281 9.660157 4.292968 14.898438 6.328125.902343.351562 1.835937.515625 2.75.515625 3.046875 0 5.925781-1.84375 7.09375-4.855469 1.519531-3.917969-.421875-8.324219-4.339844-9.847656-4.894531-1.898438-9.425781-3.914063-14.222656-6.042969-18.675781-8.304688-37.992188-16.886719-76.121094-16.886719-4.203125 0-7.609375 3.40625-7.609375 7.609375 0 4.199219 3.40625 7.605469 7.609375 7.605469 22.929687 0 38.140625 3.265625 50.988281 7.777344-.289062 6.40625-.4375 12.921875-.4375 19.441406 0 2.730469.027344 5.523437.082032 8.539063.984374 50.539062 19.667968 93 54.03125 122.800781 30.4375 26.394531 71.078124 40.925781 114.4375 40.925781 43.355468 0 84-14.535156 114.433593-40.925781 34.363281-29.800781 53.046875-72.261719 54.03125-122.8125.054688-3.0625.082031-5.855469.082031-8.527344 0-.519531-.007812-1.0625-.011718-1.589844 12.941406 3.992188 28.640625 6.832031 50.566406 6.832031 4.203125 0 7.609375-3.40625 7.609375-7.605468 0-4.203125-3.410156-7.609375-7.609375-7.609375zm0 0"/></svg>